# Blender v2.92.0 Alpha OBJ File: 'sheffield-fps-city-centre.blend'
# www.blender.org
mtllib Ponds Forge Archway.mtl
o Ponds_Forge_Archway_Cube.011
v 387.944214 16.855869 -279.847626
v 387.202545 16.855869 -267.870544
v 384.466675 16.744511 -280.049652
v 384.466675 16.744511 -280.049652
v 387.202545 6.475868 -267.870544
v 387.202545 18.475868 -267.870544
v 387.944214 6.475868 -279.847626
v 387.944214 18.475868 -279.847626
v 386.041748 16.109322 -267.937988
v 387.944214 16.855869 -279.847626
v 384.885803 16.072306 -268.005157
v 387.944214 13.075869 -279.847626
v 387.202545 13.075869 -267.870544
v 384.466675 18.364511 -280.049652
v 383.725006 6.364511 -268.072601
v 384.466675 6.364511 -280.049652
v 383.725006 18.364511 -268.072601
v 383.725006 12.964511 -268.072601
v 384.466675 12.964511 -280.049652
v 383.725006 16.744511 -268.072601
v 387.202545 17.151588 -267.870544
v 387.944214 16.855869 -278.847626
v 387.202545 16.855869 -266.870544
v 384.466675 16.744511 -279.049652
v 383.725006 16.744511 -267.072601
v 384.466675 20.364511 -280.049652
v 387.944214 20.475868 -279.847626
v 387.202545 20.475868 -267.870544
v 383.725006 20.364511 -268.072601
v 383.725006 17.040232 -268.072601
v 383.725006 17.040232 -267.072601
v 387.202545 17.151588 -266.870544
v 387.944214 13.359056 -279.847626
v 386.041748 13.871258 -267.937988
v 384.885803 13.834243 -268.005157
v 384.466675 13.247700 -280.049652
v 383.725006 12.964511 -268.072601
v 383.725006 13.247700 -268.072601
v 383.725006 12.964511 -268.072601
v 383.725006 13.247700 -268.072601
v 383.688385 12.964511 -267.527588
v 383.688385 13.247700 -267.527588
v 387.202545 16.855869 -267.870544
v 383.725006 16.744511 -268.072601
v 387.202545 13.359056 -267.870544
v 383.725006 13.247700 -268.072601
v 386.223053 16.296844 -267.927460
v 384.704498 16.248217 -268.015686
v 386.223053 13.695348 -267.927460
v 384.704498 13.646720 -268.015686
v 386.041748 15.655346 -267.937988
v 384.885803 15.618331 -268.005157
v 386.041748 14.485237 -267.937988
v 384.885803 14.448222 -268.005157
v 386.041748 15.655346 -267.937988
v 384.885803 15.618331 -268.005157
v 386.041748 14.485237 -267.937988
v 384.885803 14.448222 -268.005157
v 386.051117 15.655346 -268.099548
v 384.895203 15.618331 -268.166687
v 386.051117 14.485237 -268.099548
v 384.895203 14.448222 -268.166687
v 386.041748 16.109322 -267.937988
v 384.885803 16.072306 -268.005157
v 386.041748 15.655346 -267.937988
v 384.885803 15.618331 -268.005157
v 386.052277 16.109322 -268.119659
v 384.896362 16.072306 -268.186829
v 386.052277 15.655346 -268.119659
v 384.896362 15.618331 -268.186829
v 386.050598 13.871258 -268.090607
v 384.894684 13.834243 -268.157776
v 386.050598 14.485237 -268.090607
v 384.894684 14.448222 -268.157776
v 386.217987 16.296844 -267.839996
v 384.699402 16.248217 -267.928223
v 386.217987 13.695348 -267.839996
v 384.699402 13.646720 -267.928223
v 386.036652 16.109322 -267.850525
v 384.880737 16.072306 -267.917694
v 386.036652 13.871258 -267.850525
v 384.880737 13.834243 -267.917694
v 384.466675 20.481628 -280.049652
v 387.944214 20.592985 -279.847626
v 387.202545 20.592985 -267.870544
v 383.725006 20.481628 -268.072601
v 375.967133 16.855869 -280.589294
v 375.225464 16.855869 -268.612213
v 379.443024 16.744511 -280.360748
v 379.443024 16.744511 -280.360748
v 375.225464 6.475868 -268.612213
v 375.225464 18.475868 -268.612213
v 375.967133 6.475868 -280.589294
v 375.967133 18.475868 -280.589294
v 376.385742 16.109322 -268.535950
v 381.955658 18.289614 -280.218445
v 375.967133 16.855869 -280.589294
v 381.214020 18.289614 -268.241394
v 377.541107 16.072306 -268.459961
v 381.955658 16.725491 -280.218445
v 375.967133 13.075869 -280.589294
v 375.225464 13.075869 -268.612213
v 381.214020 12.923451 -268.241394
v 381.955658 13.075869 -280.218445
v 379.443024 18.364511 -280.360748
v 378.701355 6.364511 -268.383667
v 379.443024 6.364511 -280.360748
v 378.701355 18.364511 -268.383667
v 378.701355 12.964511 -268.383667
v 379.443024 12.964511 -280.360748
v 381.214020 16.679766 -268.241394
v 378.701355 16.744511 -268.383667
v 381.955658 16.725491 -280.218445
v 375.225464 17.151588 -268.612213
v 375.843781 16.855869 -279.596924
v 375.102112 16.855869 -267.619873
v 379.319641 16.744511 -279.368378
v 378.578003 16.744511 -267.391327
v 381.893982 16.725491 -279.222260
v 381.152313 18.147604 -267.245209
v 379.443024 20.364511 -280.360748
v 375.967133 20.475868 -280.589294
v 375.225464 20.475868 -268.612213
v 378.701355 20.364511 -268.383667
v 381.214020 20.289614 -268.241394
v 381.955658 20.289614 -280.218445
v 378.701355 17.040232 -268.383667
v 378.578003 17.040232 -267.391327
v 381.152313 18.443325 -267.245209
v 375.102112 17.151588 -267.619873
v 381.214020 18.585335 -268.241394
v 375.967133 13.359056 -280.589294
v 376.385742 13.871258 -268.535950
v 381.214020 13.204865 -268.241394
v 381.955658 13.349289 -280.218445
v 377.541107 13.834243 -268.459961
v 379.443024 13.247700 -280.360748
v 381.214020 13.204865 -268.241394
v 381.214020 12.923451 -268.241394
v 378.701355 12.964511 -268.383667
v 378.701355 13.247700 -268.383667
v 381.214020 13.204865 -268.241394
v 381.214020 12.923451 -268.241394
v 378.701355 12.964511 -268.383667
v 378.701355 13.247700 -268.383667
v 381.180237 13.204865 -267.696198
v 381.180237 12.923451 -267.696198
v 378.670471 12.964511 -267.838318
v 378.670471 13.247700 -267.838318
v 375.225464 16.855869 -268.612213
v 378.701355 16.744511 -268.383667
v 375.225464 13.359056 -268.612213
v 378.701355 13.247700 -268.383667
v 376.204498 16.296844 -268.547852
v 377.722351 16.248217 -268.448059
v 376.204498 13.695348 -268.547852
v 377.722351 13.646720 -268.448059
v 376.385742 15.655346 -268.535950
v 377.541107 15.618331 -268.459961
v 376.385742 14.485237 -268.535950
v 377.541107 14.448222 -268.459961
v 376.385742 15.655346 -268.535950
v 377.541107 15.618331 -268.459961
v 376.385742 14.485237 -268.535950
v 377.541107 14.448222 -268.459961
v 376.396362 15.655346 -268.697388
v 377.551727 15.618331 -268.621429
v 376.396332 14.485237 -268.697388
v 377.551727 14.448222 -268.621429
v 376.385742 16.109322 -268.535950
v 377.541107 16.072306 -268.459961
v 376.385742 15.655346 -268.535950
v 377.541107 15.618331 -268.459961
v 376.397675 16.109322 -268.717529
v 377.553040 16.072306 -268.641541
v 376.397675 15.655346 -268.717529
v 377.553040 15.618331 -268.641541
v 376.395752 13.871258 -268.688477
v 377.551147 13.834243 -268.612488
v 376.395752 14.485237 -268.688477
v 377.551147 14.448222 -268.612488
v 376.198761 16.296844 -268.460419
v 377.716583 16.248217 -268.360626
v 376.198761 13.695348 -268.460419
v 377.716583 13.646720 -268.360626
v 376.379974 16.109322 -268.448517
v 377.535370 16.072306 -268.372559
v 376.379974 13.871258 -268.448517
v 377.535370 13.834243 -268.372559
v 379.443024 20.481628 -280.360748
v 375.967133 20.592985 -280.589294
v 375.225464 20.592985 -268.612213
v 378.701355 20.481628 -268.383667
v 381.214020 20.406731 -268.241394
v 381.955658 20.406731 -280.218445
vt 0.518400 0.812500
vt 0.591250 0.812500
vt 0.591250 0.875000
vt 0.518400 0.875000
vt 0.591250 0.437500
vt 0.625000 0.437500
vt 0.625000 0.500000
vt 0.591250 0.500000
vt 0.625000 0.750000
vt 0.591250 0.750000
vt 0.591250 0.750000
vt 0.591250 0.812500
vt 0.312500 0.500000
vt 0.375000 0.500000
vt 0.375000 0.750000
vt 0.312500 0.750000
vt 0.518400 0.500000
vt 0.518400 0.750000
vt 0.591250 0.437500
vt 0.591250 0.500000
vt 0.625000 0.812500
vt 0.625000 0.875000
vt 0.542636 0.770863
vt 0.567014 0.770863
vt 0.567014 0.770863
vt 0.542636 0.770863
vt 0.518400 0.437500
vt 0.518400 0.375000
vt 0.591250 0.375000
vt 0.591250 0.875000
vt 0.512500 0.500000
vt 0.512500 0.750000
vt 0.375000 0.437500
vt 0.512500 0.437500
vt 0.591250 0.375000
vt 0.031602 0.398081
vt 0.564587 0.398081
vt 0.555595 0.601919
vt 0.022610 0.601919
vt 0.625000 0.437500
vt 0.625000 0.500000
vt 0.512500 0.812500
vt 0.375000 0.812500
vt 0.625000 0.375000
vt 0.591250 0.750000
vt 0.591250 0.812500
vt 0.591250 0.500000
vt 0.591250 0.750000
vt 0.591250 0.375000
vt 0.591250 0.437500
vt 0.625000 0.375000
vt 0.625000 0.750000
vt 0.625000 0.812500
vt 0.625000 0.875000
vt 0.591250 0.875000
vt 0.591250 0.750000
vt 0.512500 0.375000
vt nan nan
vt nan nan
vt nan nan
vt nan nan
vt 0.518400 0.812500
vt 0.518400 0.875000
vt 0.518400 0.875000
vt 0.518400 0.812500
vt 0.512500 0.875000
vt 0.512500 0.812500
vt 0.512500 0.875000
vt 0.512500 0.812500
vt 0.518400 0.812500
vt 0.512500 0.812500
vt 0.512500 0.875000
vt 0.570799 0.794896
vt 0.570799 0.767604
vt 0.538851 0.767604
vt 0.538851 0.794896
vt 0.538851 0.767604
vt 0.538851 0.794896
vt 0.542636 0.770863
vt 0.567014 0.770863
vt 0.570799 0.794896
vt 0.570799 0.767604
vt 0.567014 0.791637
vt 0.542636 0.791638
vt 0.542636 0.791638
vt 0.567014 0.791637
vt 0.567014 0.791637
vt 0.542636 0.791638
vt 0.567014 0.770863
vt 0.567014 0.770863
vt 0.542636 0.770863
vt 0.542636 0.770863
vt 0.567014 0.770863
vt 0.542636 0.770863
vt 0.567014 0.770863
vt 0.542636 0.770863
vt 0.542636 0.791638
vt 0.567014 0.791637
vt 0.567014 0.770863
vt 0.567014 0.770863
vt 0.567014 0.791637
vt 0.567014 0.791637
vt 0.567014 0.791637
vt 0.567014 0.791637
vt 0.542636 0.791638
vt 0.542636 0.791638
vt 0.567014 0.791637
vt 0.542636 0.791638
vt 0.518400 0.812500
vt 0.591250 0.812500
vt 0.591250 0.437500
vt 0.591250 0.500000
vt 0.625000 0.500000
vt 0.625000 0.437500
vt 0.591250 0.750000
vt 0.625000 0.750000
vt 0.591250 0.812500
vt 0.591250 0.750000
vt 0.312500 0.500000
vt 0.312500 0.750000
vt 0.375000 0.750000
vt 0.375000 0.500000
vt 0.518400 0.500000
vt 0.518400 0.750000
vt 0.000000 0.000000
vt 0.000000 0.000000
vt 0.000000 0.000000
vt 0.000000 0.000000
vt 0.591250 0.500000
vt 0.591250 0.437500
vt 0.625000 0.812500
vt 0.542636 0.770863
vt 0.542636 0.770863
vt 0.567014 0.770863
vt 0.567014 0.770863
vt 0.518400 0.437500
vt 0.512500 0.750000
vt 0.512500 0.500000
vt 0.375000 0.437500
vt 0.512500 0.437500
vt 0.031602 0.398081
vt 0.022610 0.601919
vt 0.555595 0.601919
vt 0.564587 0.398081
vt 0.625000 0.500000
vt 0.625000 0.437500
vt 0.512500 0.812500
vt 0.375000 0.812500
vt 0.591250 0.812500
vt 0.591250 0.750000
vt 0.591250 0.750000
vt 0.591250 0.500000
vt 0.591250 0.437500
vt 0.625000 0.750000
vt 0.625000 0.812500
vt 0.591250 0.750000
vt nan nan
vt nan nan
vt nan nan
vt nan nan
vt 0.518400 0.812500
vt 0.518400 0.812500
vt 0.512500 0.812500
vt 0.512500 0.812500
vt 0.512500 0.812500
vt 0.518400 0.812500
vt 0.570799 0.794896
vt 0.570799 0.767604
vt 0.538851 0.767604
vt 0.538851 0.794896
vt 0.538851 0.794896
vt 0.538851 0.767604
vt 0.567014 0.770863
vt 0.542636 0.770863
vt 0.570799 0.767604
vt 0.570799 0.794896
vt 0.567014 0.791637
vt 0.567014 0.791637
vt 0.542636 0.791638
vt 0.542636 0.791638
vt 0.567014 0.791637
vt 0.542636 0.791638
vt 0.567014 0.770863
vt 0.567014 0.770863
vt 0.542636 0.770863
vt 0.542636 0.770863
vt 0.542636 0.770863
vt 0.567014 0.770863
vt 0.542636 0.770863
vt 0.567014 0.770863
vt 0.567014 0.791637
vt 0.542636 0.791638
vt 0.567014 0.770863
vt 0.567014 0.770863
vt 0.567014 0.791637
vt 0.567014 0.791637
vt 0.567014 0.791637
vt 0.567014 0.791637
vt 0.542636 0.791638
vt 0.542636 0.791638
vt 0.567014 0.791637
vt 0.542636 0.791638
vt 0.000000 0.000000
vt 0.000000 0.000000
vt 0.000000 0.000000
vt 0.000000 0.000000
vt 0.664037 1.012187
vt 0.664037 0.949687
vt 0.664037 0.949687
vt 0.664037 1.012187
vt 0.591250 0.812500
vt 0.591250 0.875000
vt 0.000000 0.000000
vt 0.000000 0.000000
vt 0.377929 0.676709
vt 0.377625 0.639351
vt 0.553187 0.639585
vt 0.553489 0.676709
vt 0.518400 0.875000
vt 0.512500 0.875000
vt 0.666820 0.699034
vt 0.787841 0.699034
vt 0.784013 0.818791
vt 0.662992 0.818791
vt 0.666524 0.882375
vt 0.786341 0.882375
vt 0.787841 0.929305
vt 0.668024 0.929305
vt 0.787841 0.882318
vt 0.668024 0.882318
vt 0.665995 0.818848
vt 0.785812 0.818848
vt 0.726537 0.699687
vt 0.789037 0.699687
vt 0.789037 0.949687
vt 0.726537 0.949687
vt 0.664037 0.699687
vt 0.664037 0.699687
vt 0.664037 0.637187
vt 0.664037 0.574687
vt 0.664037 0.574687
vt 0.664037 0.637187
vt 0.664037 1.074687
vt 0.664037 1.074687
vt 0.000000 0.000000
vt 0.000000 0.000000
vt 0.039037 0.199687
vt 0.039037 0.199687
vt 0.039037 0.199687
vt 0.039037 0.199687
vt 0.664037 1.012187
vt 0.664037 1.012187
vt 0.664037 0.949687
vt 0.664037 0.949687
vt 0.591250 0.812500
vt 0.000000 0.000000
vt 0.000000 0.000000
vt 0.377929 0.676709
vt 0.377625 0.639351
vt 0.666820 0.699034
vt 0.662992 0.818791
vt 0.784013 0.818791
vt 0.787841 0.699034
vt 0.666524 0.882375
vt 0.668024 0.929305
vt 0.787841 0.929305
vt 0.786341 0.882375
vt 0.787841 0.882318
vt 0.785812 0.818848
vt 0.665995 0.818848
vt 0.668024 0.882318
vt 0.726537 0.699687
vt 0.726537 0.949687
vt 0.664037 0.699687
vt 0.664037 0.699687
vt 0.664037 0.637187
vt 0.664037 0.637187
vn -0.0671 0.0000 0.9977
vn 0.0580 0.0000 -0.9983
vn 0.9981 0.0000 0.0618
vn 0.0000 0.0000 1.0000
vn 0.0319 -0.9995 0.0020
vn -1.0000 0.0000 0.0000
vn 0.0671 0.0000 -0.9977
vn -0.0580 0.0000 0.9983
vn -0.9981 0.0000 -0.0618
vn 0.0000 -1.0000 0.0000
vn -0.0075 1.0000 -0.0002
vn -0.0320 0.9995 0.0000
vn -0.0670 0.0000 0.9977
vn 0.9978 0.0000 0.0670
vn 0.0319 -0.9995 0.0019
vn -0.9983 0.0000 -0.0582
vn -0.0319 0.9995 -0.0019
vn 1.0000 0.0000 0.0000
vn -0.9983 0.0000 -0.0579
vn 0.9983 0.0000 0.0581
vn 0.9983 0.0000 0.0580
vn -0.0579 0.0000 0.9983
vn 0.9983 0.0000 0.0578
vn 0.0319 -0.9995 0.0018
vn -0.0565 0.0000 0.9984
vn 0.0656 0.0000 -0.9978
vn -0.0319 -0.9995 -0.0020
vn 0.0565 0.0000 -0.9984
vn -0.0656 0.0000 0.9978
vn 0.0074 1.0000 0.0007
vn 0.0318 0.9995 0.0039
vn 0.9924 0.0000 0.1234
vn -0.9984 0.0000 -0.0565
vn -0.0319 -0.9995 -0.0021
vn 0.9978 0.0000 0.0658
vn 0.0319 0.9995 0.0021
vn 0.9979 0.0000 0.0655
vn 0.9978 0.0000 0.0655
vn -0.9978 0.0000 -0.0656
vn 0.9978 0.0000 0.0656
vn -0.9978 0.0000 -0.0657
vn -0.0656 -0.0001 0.9978
vn -0.0654 0.0000 0.9979
vn -0.0657 0.0000 0.9978
vn -0.9979 0.0000 -0.0655
vn -0.0135 -0.9999 -0.0072
vn 0.0669 0.0000 -0.9978
vn -0.4963 -0.8647 -0.0769
vn 0.0320 -0.9995 0.0000
vn -0.0170 0.9999 -0.0011
vn 0.0163 -0.9999 0.0011
vn -0.0319 0.9995 -0.0018
vn -0.0297 0.9996 -0.0018
vn -0.0319 0.9995 -0.0020
vn 0.0143 -0.9999 -0.0055
vn 0.0567 0.0000 -0.9984
vn 0.5020 -0.8647 -0.0150
vn -0.0318 -0.9995 -0.0039
vn 0.0170 0.9999 0.0010
vn -0.0163 -0.9999 -0.0010
vn -0.0656 0.0001 0.9978
vn 0.0297 0.9996 0.0018
vn 0.0319 0.9995 0.0020
usemtl Ponds_Forge_Entrance_Arch_Brick
s off
f 46/1/1 44/2/1 111/3/1 134/4/1
f 4/5/2 14/6/2 8/7/2 10/8/2
f 10/8/3 8/7/3 6/9/3 43/10/3
f 44/2/4 43/10/4 2/11/4 20/12/4
f 16/13/5 7/14/5 5/15/5 15/16/5
f 33/17/3 10/8/3 43/10/3 45/18/3
f 10/8/4 4/5/4 3/19/4 1/20/4
f 44/2/1 17/21/1 98/22/1 111/3/1
f 34/23/6 9/24/6 51/25/6 53/26/6
f 36/27/2 4/5/2 10/8/2 33/17/2
f 135/28/7 100/29/7 4/5/7 36/27/7
f 111/3/1 44/2/1 20/12/1 98/30/1
f 7/14/3 12/31/3 13/32/3 5/15/3
f 16/33/2 19/34/2 12/31/2 7/14/2
f 4/5/4 100/29/4 113/35/4 3/19/4
f 5/36/8 13/37/8 18/38/8 15/39/8
f 43/10/8 6/9/8 17/21/8 44/2/8
f 8/7/2 14/6/2 26/40/2 27/41/2
f 18/42/9 19/34/9 16/13/9 15/43/9
f 100/29/7 96/44/7 14/6/7 4/5/7
f 43/10/4 10/8/4 1/20/4 2/11/4
f 20/12/8 2/11/8 21/45/8 30/46/8
f 2/11/10 1/20/10 22/47/10 23/48/10
f 3/19/11 113/35/11 119/49/11 24/50/11
f 1/20/12 3/19/12 24/50/12 22/47/12
f 14/6/7 96/44/7 126/51/7 26/40/7
f 6/9/3 8/7/3 27/41/3 28/52/3
f 98/22/1 17/21/1 29/53/1 125/54/1
f 17/21/8 6/9/8 28/52/8 29/53/8
f 98/30/13 20/12/13 30/46/13 131/55/13
f 2/11/6 23/48/6 32/56/6 21/45/6
f 104/57/7 135/28/7 36/27/7 19/34/7
f 19/34/2 36/27/2 33/17/2 12/31/2
f 13/32/8 45/18/8 46/1/8 18/42/8
f 12/31/3 33/17/3 45/18/3 13/32/3
f 18/58/4 46/59/4 38/60/4 37/61/4
f 38/62/4 138/63/4 142/64/4 40/65/4
f 103/66/4 18/42/4 37/67/4 139/68/4
f 46/1/4 134/4/4 138/63/4 38/62/4
f 39/69/14 40/65/14 42/70/14 41/71/14
f 139/68/4 37/67/4 39/69/4 143/72/4
f 37/67/4 38/62/4 40/65/4 39/69/4
f 48/73/8 47/74/8 43/10/8 44/2/8
f 47/74/8 49/75/8 45/18/8 43/10/8
f 50/76/8 48/73/8 44/2/8 46/1/8
f 49/75/8 50/76/8 46/1/8 45/18/8
f 50/76/15 49/75/15 77/77/15 78/78/15
f 9/24/16 34/23/16 81/79/16 79/80/16
f 47/74/17 48/73/17 76/81/17 75/82/17
f 52/83/4 54/84/4 58/85/4 56/86/4
f 11/87/18 35/88/18 54/84/18 52/83/18
f 51/25/4 9/24/4 63/89/4 65/90/4
f 34/23/19 53/26/19 73/91/19 71/92/19
f 53/26/4 51/25/4 55/93/4 57/94/4
f 57/94/19 55/93/19 59/95/19 61/96/19
f 56/86/20 58/85/20 62/97/20 60/98/20
f 65/90/19 63/89/19 67/99/19 69/100/19
f 11/87/4 52/83/4 66/101/4 64/102/4
f 9/24/4 11/87/4 64/102/4 63/89/4
f 63/89/15 64/102/15 68/103/15 67/99/15
f 64/102/21 66/101/21 70/104/21 68/103/21
f 54/84/20 35/88/20 72/105/20 74/106/20
f 80/107/8 79/80/8 75/82/8 76/81/8
f 79/80/22 81/79/22 77/77/22 75/82/22
f 82/108/8 80/107/8 76/81/8 78/78/8
f 49/75/23 47/74/23 75/82/23 77/77/23
f 35/88/23 11/87/23 80/107/23 82/108/23
f 11/87/24 9/24/24 79/80/24 80/107/24
f 48/73/16 50/76/16 78/78/16 76/81/16
f 153/109/25 134/4/25 111/3/25 151/110/25
f 90/111/26 97/112/26 94/113/26 105/114/26
f 97/112/9 150/115/9 92/116/9 94/113/9
f 151/110/4 112/117/4 88/118/4 150/115/4
f 107/119/27 106/120/27 91/121/27 93/122/27
f 132/123/9 152/124/9 150/115/9 97/112/9
f 96/125/3 126/126/3 125/127/3 98/128/3
f 97/112/4 87/129/4 89/130/4 90/111/4
f 151/110/25 111/3/25 98/22/25 108/131/25
f 133/132/6 160/133/6 158/134/6 95/135/6
f 137/136/26 132/123/26 97/112/26 90/111/26
f 135/28/28 137/136/28 90/111/28 100/29/28
f 111/3/25 98/30/25 112/117/25 151/110/25
f 93/122/9 91/121/9 102/137/9 101/138/9
f 107/139/26 93/122/26 101/138/26 110/140/26
f 90/111/4 89/130/4 113/35/4 100/29/4
f 91/141/29 106/142/29 109/143/29 102/144/29
f 150/115/29 151/110/29 108/131/29 92/116/29
f 94/113/26 122/145/26 121/146/26 105/114/26
f 109/147/3 106/148/3 107/119/3 110/140/3
f 100/29/28 90/111/28 105/114/28 96/44/28
f 150/115/4 88/118/4 87/129/4 97/112/4
f 112/117/29 127/149/29 114/150/29 88/118/29
f 88/118/10 116/151/10 115/152/10 87/129/10
f 89/130/30 117/153/30 119/49/30 113/35/30
f 87/129/31 115/152/31 117/153/31 89/130/31
f 105/114/28 121/146/28 126/51/28 96/44/28
f 92/116/9 123/154/9 122/145/9 94/113/9
f 98/22/25 125/54/25 124/155/25 108/131/25
f 108/131/29 124/155/29 123/154/29 92/116/29
f 98/30/25 131/55/25 127/149/25 112/117/25
f 88/118/32 114/150/32 130/156/32 116/151/32
f 104/57/28 110/140/28 137/136/28 135/28/28
f 110/140/26 101/138/26 132/123/26 137/136/26
f 102/137/29 109/147/29 153/109/29 152/124/29
f 101/138/9 102/137/9 152/124/9 132/123/9
f 109/157/4 140/158/4 141/159/4 153/160/4
f 141/161/4 145/162/4 142/64/4 138/63/4
f 103/66/4 139/68/4 140/163/4 109/147/4
f 153/109/4 141/161/4 138/63/4 134/4/4
f 144/164/33 148/165/33 149/166/33 145/162/33
f 139/68/4 143/72/4 144/164/4 140/163/4
f 140/163/4 144/164/4 145/162/4 141/161/4
f 155/167/29 151/110/29 150/115/29 154/168/29
f 154/168/29 150/115/29 152/124/29 156/169/29
f 157/170/29 153/109/29 151/110/29 155/167/29
f 156/169/29 152/124/29 153/109/29 157/170/29
f 157/170/34 185/171/34 184/172/34 156/169/34
f 95/135/35 186/173/35 188/174/35 133/132/35
f 154/168/36 182/175/36 183/176/36 155/167/36
f 159/177/4 163/178/4 165/179/4 161/180/4
f 99/181/18 159/177/18 161/180/18 136/182/18
f 158/134/4 172/183/4 170/184/4 95/135/4
f 133/132/37 178/185/37 180/186/37 160/133/37
f 160/133/4 164/187/4 162/188/4 158/134/4
f 164/187/38 168/189/38 166/190/38 162/188/38
f 163/178/39 167/191/39 169/192/39 165/179/39
f 172/183/40 176/193/40 174/194/40 170/184/40
f 99/181/4 171/195/4 173/196/4 159/177/4
f 95/135/4 170/184/4 171/195/4 99/181/4
f 170/184/34 174/194/34 175/197/34 171/195/34
f 171/195/39 175/197/39 177/198/39 173/196/39
f 161/180/41 181/199/41 179/200/41 136/182/41
f 187/201/42 183/176/42 182/175/42 186/173/42
f 186/173/43 182/175/43 184/172/43 188/174/43
f 189/202/44 185/171/44 183/176/44 187/201/44
f 156/169/45 184/172/45 182/175/45 154/168/45
f 136/182/45 189/202/45 187/201/45 99/181/45
f 99/181/34 187/201/34 186/173/34 95/135/34
f 155/167/35 183/176/35 185/171/35 157/170/35
usemtl Ponds_Forge_Stone
f 103/66/46 104/57/46 19/34/46 18/42/46
f 25/203/47 120/204/47 129/205/47 31/206/47
f 29/207/8 28/208/8 85/209/8 86/210/8
f 131/55/48 30/46/48 31/211/48 129/212/48
f 30/46/49 21/45/49 32/56/49 31/211/49
f 23/213/2 25/203/2 31/206/2 32/214/2
f 41/215/1 42/216/1 146/217/1 147/218/1
f 40/65/50 142/64/50 146/219/50 42/70/50
f 143/72/51 39/69/51 41/71/51 147/220/51
f 34/23/52 35/88/52 82/108/52 81/79/52
f 61/221/8 59/222/8 60/223/8 62/224/8
f 67/225/8 68/226/8 70/227/8 69/228/8
f 72/229/8 71/230/8 73/231/8 74/232/8
f 35/88/17 34/23/17 71/92/17 72/105/17
f 81/79/8 82/108/8 78/78/8 77/77/8
f 83/233/53 195/234/53 194/235/53 86/236/53
f 84/237/54 83/233/54 86/236/54 85/209/54
f 28/208/3 27/238/3 84/237/3 85/209/3
f 26/239/7 126/240/7 195/241/7 83/242/7
f 125/243/1 29/207/1 86/210/1 194/244/1
f 27/238/2 26/239/2 83/242/2 84/237/2
f 103/66/55 109/147/55 110/140/55 104/57/55
f 118/245/56 128/246/56 129/205/56 120/204/56
f 126/247/3 195/248/3 194/249/3 125/250/3
f 124/251/29 193/252/29 192/253/29 123/254/29
f 131/55/57 129/212/57 128/255/57 127/149/57
f 127/149/58 128/255/58 130/156/58 114/150/58
f 116/256/26 130/257/26 128/246/26 118/245/26
f 148/258/25 147/218/25 146/217/25 149/259/25
f 145/162/59 149/166/59 146/219/59 142/64/59
f 143/72/60 147/220/60 148/165/60 144/164/60
f 133/132/36 188/174/36 189/202/36 136/182/36
f 168/260/29 169/261/29 167/262/29 166/263/29
f 174/264/29 176/265/29 177/266/29 175/267/29
f 179/268/29 181/269/29 180/270/29 178/271/29
f 136/182/36 179/200/36 178/185/36 133/132/36
f 188/174/61 184/172/61 185/171/61 189/202/61
f 190/272/62 193/273/62 194/235/62 195/234/62
f 191/274/63 192/253/63 193/273/63 190/272/63
f 123/254/9 192/253/9 191/274/9 122/275/9
f 121/276/28 190/277/28 195/241/28 126/240/28
f 125/243/25 194/244/25 193/252/25 124/251/25
f 122/275/26 191/274/26 190/277/26 121/276/26
